<svg width="500" height="500" fill="none" xmlns="http://www.w3.org/2000/svg"><g clip-path="url(#clip0)"><path d="M83.644 351.021H56.76a6.113 6.113 0 01-6.11-6.109v-108.38c0-5.218 4.246-9.448 9.448-9.448h14.099c5.218 0 9.447 4.246 9.447 9.448v114.489zM60.098 230.406a6.114 6.114 0 00-6.11 6.11v108.38a2.787 2.787 0 002.788 2.787h23.562V236.516a6.114 6.114 0 00-6.11-6.11h-14.13z" fill="#1C0839"/><path d="M52.32 345.674c-.924 0-1.67-.746-1.67-1.67v-103c0-1.863-.648-5.007-5.007-5.007h-2.026c-.923 0-1.669-.745-1.669-1.669s.746-1.669 1.67-1.669h2.009c5.072 0 8.345 3.273 8.345 8.345v103.017a1.66 1.66 0 01-1.653 1.653zM81.893 351.021c-.924 0-1.669-.745-1.669-1.669V241.004c0-1.863-.648-5.007-5.007-5.007h-2.01c-.923 0-1.669-.745-1.669-1.669s.746-1.669 1.67-1.669h2.009c5.072 0 8.345 3.273 8.345 8.345v108.364c0 .908-.745 1.653-1.669 1.653z" fill="#1C0839"/><path d="M81.975 245.542H52.32c-.924 0-1.67-.745-1.67-1.669s.746-1.669 1.67-1.669H81.99c.924 0 1.67.745 1.67 1.669a1.68 1.68 0 01-1.686 1.669zM81.975 267.743H52.32c-.924 0-1.67-.745-1.67-1.669s.746-1.669 1.67-1.669H81.99c.924 0 1.67.745 1.67 1.669a1.68 1.68 0 01-1.686 1.669zM111.08 351.021H65.43c-.924 0-1.67-.745-1.67-1.669s.746-1.669 1.67-1.669h45.65c.924 0 1.669.745 1.669 1.669s-.745 1.669-1.669 1.669z" fill="#1C0839"/><path d="M66.923 357.536c5.988 0 10.841-4.854 10.841-10.841 0-5.988-4.853-10.841-10.84-10.841-5.988 0-10.842 4.853-10.842 10.841 0 5.987 4.854 10.841 10.841 10.841z" fill="#1C0839"/><path d="M79.984 346.695c0-5.98-4.845-10.841-10.841-10.841h-2.22l-.097.259a10.827 10.827 0 00-8.524 10.582c0 5.185 3.646 9.512 8.524 10.582l.097.259h2.95c5.59-.421 10.111-5.137 10.111-10.841z" fill="#1C0839"/><path d="M32 348.607l6.514 8.929h21.051l37.564-106.922-6.061-7.276h-22.12L32 348.607z" fill="#D19C6F"/><path d="M97.129 250.614H75.77L38.515 357.536h21.05L97.13 250.614z" fill="#99533A"/><path d="M68.948 243.338L32 348.607l6.514 8.929L75.77 250.614l-6.822-7.276z" fill="#D19C6F"/><path d="M107.567 237.326v79.001l280.998 24.729v-103.73H107.567z" fill="#170E35"/><path d="M55.063 175.179l13.353-7.843s11.02-1.329 22.573-1.734c11.555-.405 20.516-24.907 20.516-24.907l-.162-1.637s-.648.13-5.283 2.091c-4.618 1.96-44.272 22.492-44.272 22.492s-3.582 1.799-5.478 5.769c-1.248 2.642-1.248 5.769-1.248 5.769z" fill="#5650EA"/><path d="M68.418 167.336s11.02-1.329 22.574-1.734c8.135-.291 14.973-12.51 18.328-19.721l-40.902 21.455zM412.305 380.71c9.675 0 17.518-17.754 17.518-39.654 0-21.901-7.843-39.654-17.518-39.654s-17.518 17.753-17.518 39.654c0 21.9 7.843 39.654 17.518 39.654z" fill="#302380"/><path d="M437.504 301.402h-25.199c-9.675 0-17.518 17.76-17.518 39.654 0 21.909 7.843 39.654 17.518 39.654h25.199c9.674 0 17.518-17.761 17.518-39.654.016-21.894-7.827-39.654-17.518-39.654z" fill="#170E35"/><path d="M398.857 335.318a2.208 2.208 0 00.924 1.977l2.236 1.605c.146.097.308.162.47.194l6.774 1.07c.13-1.442.567-2.642 1.15-3.209v-17.923c0-.178-.048-.356-.129-.518l-2.836-5.429a.563.563 0 00-.891-.146c-3.938 4.149-6.871 12.429-7.698 22.379zM411.968 316.375v20.58c.68.665 1.15 2.155 1.183 3.906l8.378 1.523c.47.081.94.016 1.361-.195l1.799-.875a2.238 2.238 0 001.264-2.041c-.389-15.59-5.866-28.1-12.737-29.121-.665-.097-1.248.437-1.248 1.102v5.121zM421.205 343.939l-8.151-1.474c-.179 1.199-.568 2.188-1.086 2.69v25.701c0 .665.583 1.199 1.248 1.102 5.817-.859 10.63-9.934 12.218-22.152a2.266 2.266 0 00-.405-1.572l-2.414-3.387c-.325-.486-.843-.794-1.41-.908zM410.411 345.155c-.599-.584-1.053-1.848-1.167-3.371l-6.595-1.183a1 1 0 00-.681.097l-2.69 1.313a1.128 1.128 0 00-.632 1.037c.308 10.89 3.095 20.256 7.114 25.215a1.12 1.12 0 001.767-.032l2.447-3.29c.291-.389.437-.843.437-1.329v-18.457z" fill="#170E35"/><path d="M287.411 362.462l55.957-19.543h31.049l29.007 14.309v-21.326H287.411v26.56z" fill="#170E35"/><path d="M149.003 297.091a21.905 21.905 0 01-.745-4.684c-.13-2.576-.341-7.195-.535-13.466l-50.317-3.225c.032.502.048.908.097 1.232.519 4.456 1.313 8.459 2.35 12.073l-2.706.583 1.523 13.693 8.929 13.045h11.23c-.486-3.241-1.118-25.247 5.818-31.308 9.609-8.427 19.77 35.554 22.347 42.652l12.478 1.426c-5.543-13.418-9.108-26.998-10.469-32.021zM294.023 285.65l-105.69-4.1c-.016.292-.016.584-.032.859-.146 5.396.453 9.27.956 11.02 5.509 20.11 8.281 30.935 11.003 39.135l-1.329 1.135 42.928 4.91h11.23s-1.653-6.499-2.139-9.302c-5.17-29.445 8.329-47.627 19.721-39.103 10.534 7.859 16.902 28.715 20.387 39.8 2.657 8.443 5.38 13.239 12.072 14.536 1.653.324 6.207.535 12.025.68.648-12.559-21.894 4.36-21.715-16.108.032-1.993.599-41.631.583-43.462z" fill="#201862"/><path d="M436.386 256.124l-59.408-91.737c-.632-.875-.049-1.621.891-1.621l7.033-.081c.47 0 .713-.567.421-.923a2522.862 2522.862 0 00-13.093-15.379c-12.689-14.731-15.298-23.174-67.479-27.792-10.873-.956-31.292-3.322-41.047-4.019-29.251-2.058-46.136-1.329-52.926-1.215-9.059.162-37.726 6.109-60.737 13.093-20.257 6.158-33.496 10.744-39.995 13.078-4.991 1.799-9.528 4.683-13.061 8.637-1.67 1.864-3.225 4.052-4.31 6.531-1.297 2.982-2.869 8.88-2.918 12.916 3.922-.211 10.809-.551 13.888-.535.648 0 1.896.243 2.463 1.442 1.086 2.301 7.828 32.556 9.14 44.661.162 1.491-1.134 2.075-2.009 2.123-4.214.276-20.257.373-24.21.389a1.11 1.11 0 01-1.087-.859s-.226-1.215-.016-3.273c1.086-1.815 2.204-3.403 2.852-4.408-.875 1.345-2.576 3.695-3.873 6.239a5.654 5.654 0 00-.632 2.512c-.145 8.832.017 8.2.017 20.451 0 17.89-.454 36.672 0 40.578 2.414 21.083 11.084 32.134 21.293 39.394-.486-3.241-1.118-25.247 5.818-31.308 9.609-8.427 19.77 34.355 22.347 41.453l106.144 12.121s-1.653-6.498-2.14-9.301c-5.169-29.445 8.33-47.627 19.722-39.104 10.534 7.86 16.902 28.716 20.386 39.8 2.658 8.443 5.38 13.24 12.073 14.536 4.489.875 30.741.973 44.645.924 1.605 0 3.209.13 4.765.47 1.41.308 3.565.6 5.834.713 2.171.113 5.072 0 10.857-.194l11.846-93.358-16.108-75.63c-.551-2.933-.454-4.262 1.248-4.327 3.03-.097 10.906.324 14.844 1.248 1.102.259 1.782.94 2.187 1.345 6.077 6.336 35.295 78.968 34.615 79.146l29.72 1.264z" fill="url(#paint0_linear)"/><path d="M372.052 253.272l79.292-8.33c-4.181-6.271-10.16-14.325-16.983-23.14-7.049-.859-23.287-2.674-46.363-4.376-1.669-.535-2.074-4.051-6.239-5.542-13.839-4.926-31.794-2.901-41.323-.438-2.641.681-5.137 1.896-7.227 3.679l-.324.275a2.17 2.17 0 01-1.508.551c-13.661-.291-49.701-.21-61.741.276 2.187 4.213 6.141 7.13 11.586 8.718-.032.13.033-.113 0 .017 2.674 2.852 5.137 5.347 7.374 7.729 7.146 7.601 16.707 12.478 27.079 13.726l56.377 6.855zM213.889 317.493h-60.202v-67.138c0-11.635 9.431-21.066 21.066-21.066h18.069c11.635 0 21.067 9.431 21.067 21.066v67.138z" fill="#170E35"/><path d="M197.861 233.226h-26.965v-2.22c0-5.51 4.488-9.998 9.998-9.998h6.968c5.526 0 9.999 4.488 9.999 9.998v2.22zm-22.055-4.456h17.161c-.859-1.961-2.82-3.338-5.088-3.338h-6.969a5.573 5.573 0 00-5.104 3.338zM155.535 198.499h-17.567l-10.711 21.65H166.246l-10.711-21.65z" fill="#170E35"/><path d="M147.918 198.499h-2.317v83.57h2.317v-83.57z" fill="#170E35"/><path d="M146.752 239.838a2.512 2.512 0 100-5.025 2.512 2.512 0 000 5.025zM159.341 225.61a1.345 1.345 0 100-2.69 1.345 1.345 0 000 2.69z" fill="#170E35"/><path d="M159.7 219.419h-.729v4.23h.729v-4.23zM165.321 253.272h-32.864v25.394h32.864v-25.394z" fill="#170E35"/><path d="M170.768 275.652h-40.74v28.926h40.74v-28.926zM123.221 198.5h-23.028v23.027h23.028V198.5z" fill="#170E35"/><path d="M281.205 224.962c-5.526-1.605-9.512-4.586-11.684-8.881l-24.632-54.028c-1.863-3.694.827-8.07 4.959-8.07h35.36c.453 0 .891.097 1.296.276-28.505-27.014-55.6-38.066-75.386-40.837a6.168 6.168 0 00-.778-.049c-9.464.324-37.645 6.19-60.348 13.094-20.257 6.158-33.496 10.744-39.995 13.077-4.991 1.799-9.528 4.684-13.06 8.638-1.67 1.863-3.226 4.051-4.311 6.53-1.297 2.982-2.869 8.881-2.917 12.916 3.921-.211 10.808-.551 13.887-.535.649 0 1.896.243 2.464 1.442 1.085 2.302 7.827 32.557 9.139 44.662.162 1.491-1.134 2.074-2.009 2.123-4.213.275-20.257.372-24.21.389-.52 0-.973-.357-1.086-.859 0 0-.227-1.216-.017-3.274-.356.616-.729 1.232-1.053 1.88a5.62 5.62 0 00-.6 2.447c-.145 8.832.017 8.2.017 20.451 0 17.891-.454 36.672 0 40.578 2.414 21.083 11.084 32.135 21.293 39.395-.486-3.242-1.118-25.248 5.818-31.309 9.61-8.427 19.77 34.355 22.347 41.453l12.478 1.426c-5.51-13.402-9.091-25.782-10.452-30.806a21.825 21.825 0 01-.746-4.683c-.47-9.367-2.009-46.007.227-90.247 2.107-41.647 3.29-45.844 4.959-55.729.68-3.987 3.176-9.902 4.197-12.203a2.19 2.19 0 011.442-1.231l38.228-10.663a.554.554 0 01.681.68l-3.452 13.904c-.648 2.625-1.167 5.818-1.264 7.6-.275 4.975-3.808 97.004-4.959 137.906-.146 5.397.454 9.27.956 11.02 5.51 20.11 8.281 30.936 11.004 39.135l-16.821-1.928 69.65 7.957s-1.653-6.499-2.14-9.302c-5.169-29.445 8.33-47.627 19.722-39.103 10.533 7.859 16.902 28.715 20.386 39.8 2.658 8.443 5.38 13.239 12.073 14.536 1.653.324 6.207.535 12.024.68.649-12.559 1.264-29.266 1.459-49.733.502-49.118-7.665-52.991-24.146-70.525zm-144.388-79.519c-1.021 3.549-1.361 6.806-1.847 13.564-7.26 1.102-19.09 3.225-19.09 3.225s.648-9.95 1.442-13.029c.665-2.512 1.669-5.316 3.533-8.784 1.199-.502 4.845-1.75 9.059-3.03 4.651-1.41 8.037-2.188 10.614-2.868-1.945 4.44-2.966 8.345-3.711 10.922zm118.849 92.224c-11.36-.519-11.846-5.186-15.087-5.186-5.186 0-13.742.049-18.247.081-2.237.016-4.392-.907-5.867-2.593-3.241-3.695-8.28-11.765-8.07-27.062.162-11.668.438-26.399 2.285-32.946.827-2.916 1.88-4.764 6.952-4.667 3.225.065 8.459.114 12.43.827 2.576.454 3.775 1.863 4.861 3.84 2.188 3.955 6.223 13.273 11.603 28.295 5.169 14.406 10.323 32.005 11.506 35.457.907 2.625-.357 4.051-2.366 3.954z" fill="#5650EA"/><path opacity=".3" d="M103.63 167.077c-3.079-.016-9.983.324-13.888.535v.032c.243 1.053 2.01 4.214 2.998 5.931.438.746.632 1.605.583 2.463-.372 5.818-1.296 18.004-1.993 30.11-.146.567-1.847 2.755-3.42 5.396-.21 2.058.017 3.273.017 3.273a1.11 1.11 0 001.086.859c3.954-.016 20.013-.113 24.21-.389.892-.064 2.172-.632 2.01-2.123-1.313-12.121-8.054-42.376-9.14-44.661-.567-1.183-1.815-1.41-2.463-1.426zM385.033 161.438h-8.589c-.81 0-1.458.291-1.815.81l-.194.308c-.324.437-.535.567-2.398.502l-75.5-3.808a7.673 7.673 0 01-3.695-1.151l-5.882-3.63a3.334 3.334 0 00-1.751-.502H249.85c-4.149 0-6.823 4.359-4.959 8.07l24.632 54.028c3.565 7.066 12.008 10.55 24.178 10.291 15.184-.341 39.427-1.394 70.978-1.102 39.719.372 62.877 1.896 70.055 2.447a2.262 2.262 0 002.431-2.253c-16.027-20.905-37.904-47.173-52.132-64.01z" fill="#5650EA"/><path d="M466.188 302.779c.016-.567.583-.616.583-1.199.049-7.001-.211-14.666-2.139-23.368-.389-1.767-1.588-1.815-1.945-2.723-2.22-5.688-3.581-11.959-5.623-18.166.454-2.933-2.204-6.871-3.646-9.172-3.646-5.818-9.431-13.774-16.27-22.703a2.262 2.262 0 01-2.431 2.252c-7.179-.551-30.336-2.074-70.055-2.447-31.551-.291-55.794.762-70.978 1.102-4.765.114-8.946-.373-12.495-1.41 16.465 17.534 24.632 21.407 24.179 70.509-.195 20.467-.811 37.175-1.459 49.734 1.88.048 3.873.081 5.947.113h.065c2.074.033 4.214.065 6.369.081h.097c.648 0 1.296.016 1.945.016h.308c.68 0 1.361.017 2.041.017 1.41.016 2.804.016 4.165.016H336.53c1.604 0 3.209.129 4.764.47 1.41.308 3.566.599 5.834.713 4.278.227 11.295-.454 37.467-.746 17.809-.21 29.947-.097 49.344-1.021 3.517-.162 8.038-3.532 11.798-3.97 4.651-.535 5.396-.567 8.945-1.053 3.565-.486 11.862-8.216 12.624-12.786 1.669-10.177-1.102-9.302-1.216-12.381-.064-2.252.017-6.968.098-11.878z" fill="#4E42E5"/><path d="M258.129 387.305c9.675 0 17.518-17.753 17.518-39.654 0-21.9-7.843-39.654-17.518-39.654s-17.518 17.754-17.518 39.654c0 21.901 7.843 39.654 17.518 39.654z" fill="#302380"/><path d="M283.343 307.98h-25.199c-9.675 0-17.518 17.761-17.518 39.655 0 21.909 7.843 39.654 17.518 39.654h25.199c9.674 0 17.518-17.761 17.518-39.654 0-21.894-7.844-39.655-17.518-39.655z" fill="#302380"/><path d="M244.678 341.898a2.212 2.212 0 00.924 1.977l2.236 1.604c.146.098.308.162.47.195l6.774 1.069c.13-1.442.567-2.641 1.151-3.208v-17.923c0-.178-.049-.357-.13-.519l-2.836-5.428a.562.562 0 00-.891-.146c-3.938 4.164-6.871 12.429-7.698 22.379zM257.789 322.97v20.581c.681.664 1.151 2.155 1.183 3.905l8.378 1.524c.47.081.94.016 1.361-.195l1.799-.875a2.24 2.24 0 001.264-2.042c-.389-15.589-5.866-28.1-12.737-29.12-.665-.098-1.248.437-1.248 1.101.016 1.815 0 5.121 0 5.121zM267.026 350.535l-8.151-1.474c-.178 1.199-.567 2.187-1.086 2.69v25.701c0 .664.583 1.199 1.248 1.102 5.818-.859 10.63-9.934 12.219-22.153a2.264 2.264 0 00-.406-1.571l-2.414-3.387a2.094 2.094 0 00-1.41-.908zM256.249 351.751c-.6-.583-1.053-1.847-1.167-3.371l-6.595-1.183a1 1 0 00-.681.098l-2.69 1.312a1.13 1.13 0 00-.632 1.037c.308 10.89 3.095 20.257 7.114 25.216a1.12 1.12 0 001.767-.033l2.447-3.289c.291-.389.437-.843.437-1.329v-18.458z" fill="#170E35"/><path d="M210.68 169.961c-1.847 6.531-2.107 21.278-2.285 32.945-.227 15.298 4.829 23.368 8.07 27.063a7.667 7.667 0 005.121 2.56c1.685-.016 3.484-.016 5.283-.032-1.864-.227-3.614-1.102-4.862-2.528-3.241-3.695-8.28-11.765-8.07-27.063.162-11.667.438-26.398 2.285-32.945.697-2.495 1.588-4.213 5.024-4.586-1.345-.032-2.593-.065-3.63-.081-5.056-.097-6.126 1.75-6.936 4.667z" fill="#302380"/><path d="M248.454 246.32c-.033.405-.065.794-.097 1.216-.276 5.299-1.297 29.12-1.913 43.932 3.841-3.841 8.589-4.586 13.013-1.264 10.533 7.859 16.902 28.715 20.386 39.8a69.99 69.99 0 001.329 3.84l23.773-14.26c.211-7.325.356-15.363.438-24.097.178-18.474-.876-30.547-3.128-39.346-.016 0-.049-.017-.065-.017-29.574-4.91-47.53-8.507-53.736-9.804z" fill="#585AF5"/><path opacity=".3" d="M210.682 169.961c.826-2.917 1.879-4.764 6.952-4.667 3.224.065 8.459.114 12.429.827 2.577.453 3.776 1.863 4.861 3.84 2.188 3.954 6.223 13.272 11.603 28.294 5.17 14.407 10.323 32.006 11.506 35.457.891 2.642-.373 4.068-2.382 3.971-11.36-.519-11.846-5.186-15.087-5.186-5.186 0-13.742.049-18.247.081-2.236.016-4.392-.907-5.866-2.593-3.241-3.695-8.281-11.765-8.071-27.062.195-11.684.454-26.431 2.302-32.962z" fill="#5650EA"/><path d="M120.873 140.42c1.199-.503 4.845-1.75 9.059-3.031 4.651-1.41 8.037-2.187 10.614-2.868-1.961 4.44-2.982 8.346-3.727 10.906-1.021 3.549-1.361 6.806-1.847 13.564-7.26 1.102-19.09 3.225-19.09 3.225s.648-9.95 1.442-13.029c.665-2.496 1.685-5.299 3.549-8.767z" fill="url(#paint1_linear)"/><path d="M258.031 233.696c.891 2.641-.373 4.068-2.382 3.97-2.074-.097-3.776-.324-5.202-.648-.891 2.642-1.88 6.385-2.09 10.501-.276 5.299-1.297 29.121-1.913 43.932 3.841-3.84 8.589-4.586 13.013-1.264 10.533 7.86 16.902 28.716 20.386 39.8a69.745 69.745 0 001.329 3.841l23.773-14.261c.211-7.325.357-15.362.438-24.097.453-49.102-7.714-52.975-24.179-70.509 0 0-16.205.957-24.534 4.441.632 2.009 1.102 3.516 1.361 4.294z" fill="#5650EA"/><path d="M336.563 345.447c1.605 0 3.209.129 4.765.47 1.409.307 3.565.599 5.833.713 4.279.226 11.295-.454 37.467-.746 17.809-.211 29.947-.097 49.345-1.021 3.516-.162 8.037-3.533 11.797-3.97 4.651-.535 5.396-.567 8.945-1.053 3.565-.487 11.862-8.216 12.624-12.786 1.669-10.177-1.102-9.302-1.215-12.381-.081-2.301 0-7.017.064-11.927.017-.567.584-.616.584-1.199.048-7.001-.211-14.666-2.139-23.368-.389-1.766-1.588-1.815-1.945-2.723-2.204-5.655-3.565-11.878-5.575-18.02l-6.255 4.068a4.468 4.468 0 01-4.78.048 6.491 6.491 0 00-3.371-.988l-82.419-1.232a13.369 13.369 0 00-6.547 1.605l-3.501 1.896c-.858.47-2.074.583-3.824.324l-44.208-7.066c-3.921 16.238-10.565 27.873-21.925 35.279-5.672 3.695-10.566 5.429-14.034 6.223 6.596 9.723 10.955 23.886 13.612 32.361 2.658 8.443 5.38 13.24 12.073 14.536 4.473.908 30.725 1.005 44.629.957z" fill="#4E42E5"/><path d="M448.182 262.234a4.536 4.536 0 01-2.106-.665 6.491 6.491 0 00-3.371-.988l-82.419-1.232a13.369 13.369 0 00-6.547 1.605l-3.501 1.896c-.858.47-2.074.583-3.824.324l-11.182-1.783c5.073 10.161 12.754 24.94 17.129 31.535 2.707 4.084 7.293 8.233 14.261 9.254 8.734 1.296 18.295 1.409 36.867 1.296 19.867-.114 28.829-.924 35.44-2.074 5.705-.989 7.601-6.256 8.573-9.95 1.086-4.1 3.889-19.284.68-29.218zM337.697 317.25c-.341.34-1.88 2.042 0 2.107 0 0 39.8.518 58.581 0 8.767-.243 49.653.113 62.147-2.869 2.658-.632-2.868-8.783-6.822-9.69-6.693-1.54-42.409-.373-49.896-.324-9.853.048-37.061.405-50.204 1.652-4.699.422-11.862 7.147-13.806 9.124z" fill="#302380"/><path d="M434.832 318.66c7.989-1.604 10.128-7.989 11.311-12.429-12.283-.616-38.195.194-44.45.227-8.524.048-30.061.324-44.224 1.199.94 2.982 2.69 6.919 5.834 9.496 1.231 1.021 3.37 1.815 5.947 2.431 9.82.016 19.932-.033 27.046-.227 5.397-.162 22.931-.081 38.536-.697z" fill="#4E42E5"/><path d="M189.256 332.726l-.211-.032-40.918-4.684-.032-.081c-5.558-13.515-9.156-26.058-10.452-30.822a22.125 22.125 0 01-.746-4.716c-.502-10.063-1.993-46.33.227-90.262 1.928-38.228 3.095-44.921 4.554-53.396.129-.762.259-1.54.405-2.35.68-4.003 3.176-9.885 4.213-12.235a2.372 2.372 0 011.523-1.313l38.228-10.663a.701.701 0 01.681.179.702.702 0 01.178.68l-3.451 13.904c-.632 2.544-1.151 5.721-1.264 7.568-.26 4.554-3.776 95.951-4.959 137.89-.146 5.202.405 9.091.956 10.987 1.394 5.088 2.609 9.577 3.695 13.58 3.176 11.7 5.266 19.43 7.308 25.539l.065.227zm-40.934-4.959l40.529 4.635c-2.009-6.093-4.1-13.774-7.244-25.361-1.086-4.003-2.301-8.492-3.695-13.564-.567-1.912-1.118-5.834-.972-11.068 1.183-41.955 4.7-133.336 4.959-137.906.097-1.864.632-5.056 1.264-7.616l3.452-13.904a.408.408 0 00-.098-.406.425.425 0 00-.405-.113l-38.228 10.663a2.018 2.018 0 00-1.345 1.167c-1.037 2.333-3.516 8.2-4.197 12.17-.13.81-.275 1.588-.405 2.35-1.475 8.459-2.625 15.151-4.554 53.363-2.22 43.916-.729 80.167-.227 90.231.081 1.571.325 3.127.746 4.65 1.296 4.749 4.894 17.243 10.42 30.709z" fill="#000"/><path d="M152.44 328.383c-5.364-13.158-8.848-25.231-10.193-30.174a21.825 21.825 0 01-.746-4.683c-.47-9.367-2.009-46.007.227-90.247 2.107-41.647 3.29-45.844 4.959-55.729.681-3.987 2.625-8.33 3.646-10.631a2.193 2.193 0 011.442-1.231l34.209-9.545.778-3.128a.55.55 0 00-.68-.68l-38.228 10.663a2.24 2.24 0 00-1.443 1.231c-1.02 2.301-3.516 8.216-4.197 12.203-1.669 9.869-2.852 14.082-4.958 55.729-2.237 44.24-.697 80.88-.227 90.247.081 1.588.324 3.144.745 4.683 1.361 5.024 4.943 17.404 10.452 30.806l4.214.486zM114.294 226.647H86.227c.016 1.637.032 3.614.048 6.498h28.035c2.058 0 3.598-1.896 3.176-3.921a3.277 3.277 0 00-3.192-2.577z" fill="#302380"/><path d="M230.402 160.109a6.48 6.48 0 00-.454-.276c-3.598-1.977-12.851-3.387-26.933-3.387-8.443 0-12.267.033-13.402 2.366v.016c-.113.26-.421 1.119-.372 2.237.372 11.992 3.662 54.125 4.877 78.433.179 3.678.519 7.341.584 11.003 1.377-21.034 2.187-47.125 4.796-58.16 3.549-15.006 6.807-25.248 9.464-32.168 7.584-.081 15.444-.081 21.44-.064z" fill="#4E42E5"/><path d="M189.613 158.813c.049-.098.049-.098 0 0z" fill="url(#paint2_linear)"/><path d="M467.144 327.832c-1.88 1.782-4.797 2.852-9.902 3.549-9.69 1.312-46.995 3.063-64.221 3.322-41.89.616-85.32-.875-91.98-1.815-9.659-1.361-13.548-2.204-18.458-6.012-2.155-1.669-4.019-3.695-5.591-5.785 1.118 3.289 2.074 6.352 2.869 8.88 2.657 8.443 5.38 13.24 12.072 14.536 4.489.875 30.742.972 44.646.924 1.604 0 3.208.129 4.764.47 1.41.308 3.565.599 5.834.713 4.278.227 11.295-.454 37.466-.746 17.81-.21 29.947-.097 49.345-1.021 3.516-.162 8.038-3.532 11.797-3.97 4.651-.535 5.397-.567 8.945-1.053 3.355-.438 10.971-7.374 12.414-11.992zM212.851 199.957h8.248a4.463 4.463 0 014.408 3.808c.535 3.679.729 10.696.729 17.08 0 9.367-.129 11.717-2.933 11.717h-5.088a6.659 6.659 0 01-5.477-2.868c-1.929-2.772-3.436-5.51-4.343-11.927-.665-4.781-.357-10.372.032-13.872a4.453 4.453 0 014.424-3.938z" fill="#302380"/><path d="M222.332 232.562a3072.44 3072.44 0 0118.247-.081c3.241 0 3.727 4.667 15.087 5.185 2.009.098 3.273-1.328 2.382-3.97-.762-2.269-3.257-10.647-6.352-20.224l-.211 1.248c-.308 1.928-1.394 2.998-3.581 2.998H228.49c-.94 0-2.269-.567-2.301-2.496l-1.199-3.111-5.219 20.046c.811.275 1.67.421 2.561.405zm3.841-8.929c.388-1.54 1.199-2.172 2.787-2.107 2.155.097 5.023.276 6.304.632 1.912.519 2.9 1.637 3.386 2.544.584 1.086.211 2.447-.891 3.014-.972.503-2.609.924-5.412.924-1.653 0-2.982-.032-4.003-.065-1.604-.048-2.155-.632-2.155-2.366l-.016-2.576zM112.135 363.937c8.287 0 15.006-15.207 15.006-33.966s-6.719-33.966-15.006-33.966c-8.288 0-15.006 15.207-15.006 33.966s6.718 33.966 15.006 33.966z" fill="#302380"/><path d="M148.224 327.896l-12.478-1.426c-1.458-4.002-5.315-19.349-10.128-30.465h-13.467c-8.297 0-15.005 15.2-15.005 33.966 0 18.765 6.725 33.966 15.005 33.966h21.586c8.297 0 15.006-15.201 15.006-33.966 0-.681-.016-1.345-.033-2.026l-.486-.049z" fill="#302380"/><path d="M100.63 325.061a1.94 1.94 0 00.794 1.701l1.912 1.377c.114.082.26.146.405.163l5.802.923c.113-1.231.486-2.252.988-2.738V311.14a.837.837 0 00-.113-.437l-2.431-4.651a.466.466 0 00-.761-.114c-3.387 3.517-5.899 10.599-6.596 19.123zM111.858 308.839v17.631c.584.568.989 1.848 1.021 3.339l7.179 1.296c.405.065.81.016 1.167-.162l1.539-.745c.665-.325 1.102-1.005 1.07-1.751-.34-13.353-5.024-24.064-10.906-24.939a.946.946 0 00-1.07.94v4.391zM119.767 332.45l-6.985-1.264c-.146 1.037-.486 1.88-.924 2.301v22.007a.946.946 0 001.07.939c4.975-.745 9.107-8.507 10.468-18.96a1.896 1.896 0 00-.34-1.345l-2.074-2.9a1.844 1.844 0 00-1.215-.778zM110.531 333.487c-.518-.502-.907-1.588-.988-2.885l-5.64-1.02c-.194-.033-.405 0-.583.081l-2.318 1.118a.945.945 0 00-.534.891c.259 9.334 2.657 17.34 6.093 21.585a.952.952 0 001.507-.032l2.107-2.82c.243-.324.372-.729.372-1.134v-15.784h-.016z" fill="#170E35"/><path d="M335.234 261.391l-33.026-5.283a1695.89 1695.89 0 01-21.99-3.776c.632 4.294 3.127 15.022 12.737 19.754 12.17 5.996 38.05 6.142 50.965 6.142-3.062-5.704-6.19-11.83-8.686-16.837zM461.748 272.848a67.584 67.584 0 01-.567-1.718c-.017-.065-.033-.13-.065-.178-1.378-4.359-2.512-8.929-3.987-13.467v-.016l-6.255 4.067a4.29 4.29 0 01-2.674.697c1.556 4.797 1.702 10.825 1.313 16.238 3.678-.146 9.512-.567 12.899-1.783.276-.097.438-.389.551-.81a1.452 1.452 0 01-.259-.405 81.841 81.841 0 01-.794-2.155 3.873 3.873 0 01-.162-.47zM317.326 318.919h-20.532a1.105 1.105 0 01-.81-1.863l8.994-9.675a14.47 14.47 0 0110.582-4.602h17.971c1.945 0 2.95 2.317 1.621 3.743l-7.26 7.795a14.408 14.408 0 01-10.566 4.602zM459.284 302.779c-1.945 0-2.95 2.317-1.621 3.743l7.26 7.795c.405.437.859.843 1.313 1.231a4.449 4.449 0 01-.114-.842c-.081-2.301 0-7.017.065-11.927h-6.903z" fill="#fff"/><path d="M211.149 113.421c19.786 2.755 46.882 13.823 75.386 40.837.146.065.308.146.454.227l5.883 3.63a7.848 7.848 0 003.694 1.151l75.5 3.808c1.848.065 2.075-.065 2.399-.502l.194-.308c.357-.519 1.005-.81 1.815-.81h8.589a2538.008 2538.008 0 00-12.818-15.055c-12.689-14.731-15.298-23.173-67.479-27.792-10.873-.956-31.292-3.322-41.047-4.019-29.251-2.058-46.137-1.329-52.927-1.215-.113 0-.226.016-.34.016.211-.016.438-.016.697.032z" fill="#4E42E5"/><path d="M466.218 315.548c-.032-.113-.048-.243-.081-.389v-.048a3.48 3.48 0 01-.032-.422c-.081-2.301 0-7.017.065-11.927.016-.567.583-.616.583-1.199.049-7.001-.21-14.666-2.139-23.368-.324-1.458-1.199-1.75-1.685-2.317a1.469 1.469 0 01-.26-.405 88.2 88.2 0 01-.794-2.156c-.032-.081-.048-.162-.081-.243-.032-.081-.048-.162-.081-.243a71.737 71.737 0 01-.567-1.717c-.016-.065-.032-.13-.065-.179a137.924 137.924 0 01-.939-3.111c-.049-.195-.114-.389-.163-.583-.275-.973-.567-1.961-.842-2.934a592.044 592.044 0 01-.875-3.046c-.065-.211-.13-.405-.179-.616a78.825 78.825 0 00-.988-3.176v-.016c-.016-.049-.032-.081-.049-.13.454-2.933-2.204-6.871-3.646-9.172a147.924 147.924 0 00-2.09-3.209c-.13-.194-.276-.405-.405-.599-.341-.503-.681-1.005-1.038-1.524-.226-.324-.453-.664-.696-.988-.373-.535-.73-1.054-1.119-1.604-.259-.357-.518-.73-.777-1.086-.389-.551-.778-1.102-1.183-1.653l-.875-1.216c-.406-.551-.795-1.102-1.216-1.652-.34-.454-.68-.924-1.021-1.378-.405-.535-.794-1.069-1.199-1.62l-1.167-1.556c-.389-.519-.778-1.021-1.167-1.556-.437-.583-.907-1.183-1.361-1.782-.324-.422-.632-.827-.956-1.248-.048-.065-.097-.114-.13-.178-.875-1.135-1.766-2.302-2.673-3.468-15.314-19.754-34.874-43.284-48.292-59.149-.324-.373-.632-.746-.94-1.118-.032-.033-.064-.065-.081-.098a2489.64 2489.64 0 00-12.818-15.054c-12.689-14.731-15.298-23.174-67.478-27.792-10.874-.956-31.292-3.322-41.048-4.019-29.25-2.058-46.136-1.329-52.926-1.215-.113 0-.227.016-.34.016h-.033c-.081 0-.178.016-.275.016-.146 0-.308.016-.47.016-.162.016-.34.016-.519.033-.162.016-.34.016-.518.032l-.567.049-.568.048c-.21.017-.421.049-.632.065-.194.016-.405.049-.599.065-.227.032-.454.049-.681.081-.211.032-.437.049-.648.081a80 80 0 01-.713.097c-.227.033-.47.065-.697.097-.243.033-.502.065-.762.114-.243.032-.486.065-.745.113-.259.033-.535.081-.81.13-.26.032-.519.081-.778.13-.276.048-.567.097-.859.145-.259.049-.535.082-.794.13-.292.049-.6.097-.908.162l-.826.146c-.308.049-.616.113-.94.162-.292.049-.567.097-.859.162-.324.065-.648.114-.956.178-.292.049-.583.114-.891.162l-1.021.195c-.292.065-.6.113-.891.178-.341.065-.697.146-1.054.211a18.98 18.98 0 01-.923.178c-.341.065-.697.146-1.054.211l-.972.194c-.357.081-.713.146-1.07.227-.324.065-.664.146-.988.211-.357.081-.729.162-1.086.227-.34.048-.664.129-1.021.21-.372.081-.745.162-1.102.243-.34.081-.68.146-1.021.227-.389.081-.778.178-1.166.26-.325.081-.665.145-1.005.226-.389.098-.794.179-1.183.276l-1.021.243c-.389.097-.778.178-1.183.275-.34.081-.681.162-1.037.244-.389.097-.794.194-1.199.291-.357.081-.697.162-1.054.259l-1.166.292c-.357.081-.713.178-1.07.259-.405.098-.826.211-1.248.308-.34.081-.68.162-1.005.26-.421.113-.826.21-1.247.324-.341.081-.681.178-1.021.259-.422.113-.843.227-1.264.324-.324.081-.665.178-.989.259-.437.114-.875.227-1.296.357-.324.081-.632.162-.956.259l-1.264.341c-.324.097-.648.178-.973.275-.421.113-.842.243-1.264.357-.324.097-.648.178-.956.275-.453.13-.907.259-1.345.389-.291.081-.567.162-.859.243-.567.162-1.134.34-1.701.502-.162.049-.324.098-.47.146-.729.211-1.442.438-2.172.648-18.96 5.769-31.778 10.145-38.665 12.608 0 0-.308.065-2.026.745-.518.195-1.021.406-1.523.616-.502.211-1.07.454-1.734.73-4.618 1.96-44.272 22.492-44.272 22.492s-3.582 1.799-5.478 5.769c-1.264 2.642-1.264 5.769-1.264 5.769l13.353-7.843s10.323-1.232 21.456-1.685c-.065.68-.114 1.345-.13 1.961v.048c.243 1.054 2.01 4.214 2.998 5.931.438.746.632 1.605.584 2.463-.373 5.818-1.297 18.004-1.994 30.11-.016.081-.08.21-.162.34-.016.032-.048.081-.08.13-.082.129-.163.275-.26.437-.016.033-.032.049-.049.081-.875 1.345-2.576 3.695-3.873 6.239 0 0 0 .016-.016.016 0 .017-.016.017-.016.033a5.483 5.483 0 00-.535 1.75c0 .016 0 .032-.016.049-.032.194-.032.372-.049.567v.081c-.032 2.155-.048 3.759-.064 5.104V222.109c0 1.572.016 2.901.032 4.635v9.642c0 17.89-.454 36.672 0 40.578 1.799 15.638 7.033 25.75 13.79 32.896-.259.81-.518 1.653-.745 2.528a60.66 60.66 0 00-1.264 5.931 89.341 89.341 0 00-.438 3.193 53.79 53.79 0 00-.291 3.322 77.169 77.169 0 00-.178 5.169c0 18.766 6.725 33.966 15.006 33.966h21.585c8.297 0 15.006-15.2 15.006-33.966 0-.68-.016-1.361-.033-2.026l3.728.422 24.064 2.755-4.262-.486 26.723 3.046 42.117 4.813a87.718 87.718 0 00-.47 9.14c0 21.909 7.843 39.654 17.518 39.654h25.199c8.102 0 14.908-12.43 16.918-29.332l35.846-12.526h.453c1.605 0 3.209.129 4.765.47 1.231.259 3.046.518 4.991.664l.843.049c.129 0 .275.016.405.016H351.389c.145 0 .275 0 .421-.016h.292c.129 0 .259 0 .405-.016.113 0 .227 0 .34-.017.146 0 .276-.016.421-.016.13 0 .243 0 .373-.016.114 0 .227 0 .357-.016.162 0 .34-.016.502-.016.162 0 .308-.017.47-.017.891-.032 1.864-.064 2.933-.097 4.943-.162 12.024-.356 22.59-.518l15.087 7.438c.665 4.602 1.685 8.832 2.998 12.526.113.324.227.632.34.94 2.123 5.607 4.911 9.853 8.103 12.106 1.653 1.166 3.403 1.782 5.218 1.782h25.199c9.675 0 17.518-17.761 17.518-39.654 0-.438-.016-.859-.016-1.28.129-.033.259-.049.389-.097.081-.033.178-.065.259-.098.178-.064.34-.129.518-.21.114-.049.227-.114.357-.179.162-.081.34-.162.502-.275.13-.081.276-.162.405-.243.162-.097.341-.195.503-.308.146-.097.308-.211.453-.308l.487-.34c.162-.13.34-.26.502-.389.162-.114.308-.243.47-.373.178-.146.356-.308.535-.454.146-.113.275-.243.421-.356.195-.178.389-.34.583-.519.13-.113.244-.227.373-.356.195-.195.405-.389.6-.584.113-.113.21-.226.324-.324.211-.21.405-.437.616-.648.097-.097.178-.194.275-.292.211-.226.405-.47.6-.696.081-.081.146-.179.21-.26.195-.243.389-.486.584-.745.065-.081.113-.146.162-.227.194-.259.373-.519.535-.778.048-.065.081-.129.113-.194.178-.26.34-.535.486-.794.033-.049.049-.098.081-.146.146-.276.292-.551.405-.81.017-.033.017-.065.033-.081.129-.276.227-.551.308-.827.081-.259.146-.519.194-.762 1.588-9.139-.47-9.399-1.005-11.554z" fill="url(#paint3_linear)" style="mix-blend-mode:overlay"/><path d="M168.01 312.064l-43.641.713v57.042l38.957 5.591v.016h52.051v-59.262l-47.367-4.1z" fill="#D19C6F"/><path d="M163.473 316.164v59.263l-39.103-5.607v-57.043l39.103 3.387z" fill="#D19C6F"/><path d="M215.378 316.164h-52.051v59.262h52.051v-59.262z" fill="#99533A"/><path d="M166.683 291.257l-23.741.389v21.958l21.197 1.847h28.326v-21.958l-25.782-2.236z" fill="#D19C6F"/><path d="M192.464 293.493h-28.326v21.958h28.326v-21.958z" fill="#99533A"/><path d="M164.218 293.493v21.958l-21.278-1.847v-21.958l21.278 1.847z" fill="#D19C6F"/></g><defs><linearGradient id="paint0_linear" x1="275.638" y1="307.197" x2="270.216" y2="113" gradientUnits="userSpaceOnUse"><stop stop-color="#4E42E5"/><stop offset=".113" stop-color="#4B3FDB"/><stop offset=".222" stop-color="#4237BF"/><stop offset=".449" stop-color="#342A93"/><stop offset=".653" stop-color="#302380"/><stop offset=".888" stop-color="#211855"/></linearGradient><linearGradient id="paint1_linear" x1="129.972" y1="135.989" x2="125.622" y2="160.257" gradientUnits="userSpaceOnUse"><stop offset=".085" stop-color="#170E35" stop-opacity="0"/><stop offset="1" stop-color="#170E35"/></linearGradient><linearGradient id="paint2_linear" x1="189.621" y1="158.778" x2="189.653" y2="158.778" gradientUnits="userSpaceOnUse"><stop stop-color="#3D2C95"/><stop offset="1" stop-color="#4E42E5"/></linearGradient><linearGradient id="paint3_linear" x1="262.114" y1="138.928" x2="212.412" y2="438.501" gradientUnits="userSpaceOnUse"><stop stop-color="#D52A4E" stop-opacity="0"/><stop offset="0" stop-color="#D52A4E" stop-opacity=".025"/><stop offset="1" stop-color="#D52A4E"/></linearGradient><clipPath id="clip0"><path fill="#fff" transform="translate(32 113)" d="M0 0h436v274.305H0z"/></clipPath></defs></svg>